<?xml version="1.0" standalone="no"?>
  <!DOCTYPE svg PUBLIC "-//W3C//DTD SVG 1.1//EN" "http://www.w3.org/Graphics/SVG/1.1/DTD/svg11.dtd" >
  <svg>
  <metadata>
  Created by font-carrier
  </metadata>
  <defs>
  <font id="Bicubik" horiz-adv-x="1340" vert-adv-y="1340" >
    <font-face
      
      font-family="Bicubik"
      
      font-weight="400"
      
      font-stretch="normal"
      
      units-per-em="1000"
      
      ascent="915"
      
      descent="-300"
      
    />
      <missing-glyph />

      

      
      <glyph glyph-name="uni21" unicode="&#x21;" d="M50 0L150 0L150 100L50 100ZM50 200L150 200L150 700L50 700Z"  horiz-adv-x="200" vert-adv-y="1000"  />

      
      <glyph glyph-name="uni22" unicode="&#x22;" d="M50 500L150 500L150 700L50 700ZM250 500L350 500L350 700L250 700Z"  horiz-adv-x="400" vert-adv-y="1000"  />

      
      <glyph glyph-name="uni23" unicode="&#x23;" d="M230 200L230 400L430 400L430 200ZM430 500L230 500L230 600L130 600L130 500L30 500L30 400L130 400L130 200L30 200L30 100L130 100L130 0L230 0L230 100L430 100L430 0L530 0L530 100L630 100L630 200L530 200L530 400L630 400L630 500L530 500L530 600L430 600Z"  horiz-adv-x="660" vert-adv-y="1000"  />

      
      <glyph glyph-name="uni24" unicode="&#x24;" d="M240 400C185 400 140 445 140 500C140 555 185 600 240 600L340 600L340 400ZM540 300C595 300 640 255 640 200C640 145 595 100 540 100L440 100L440 300ZM540 0C652 3 740 92 740 200C740 311 645 400 540 400L440 400L440 600L540 600C595 600 640 555 640 500L740 500C737 611 647 700 540 700L440 700L440 800L340 800L340 700L240 700C128 700 40 606 40 500C40 387 133 300 240 300L340 300L340 100L240 100C185 100 140 145 140 200L40 200C43 87 131 0 240 0L340 0L340-100L440-100L440 0Z"  horiz-adv-x="780" vert-adv-y="1000"  />

      
      <glyph glyph-name="uni25" unicode="&#x25;" d="M730 700L667 700L180 77L180 0L247 0L730 619ZM230 400C175 400 130 445 130 500C130 555 175 600 230 600C285 600 330 555 330 500C330 445 285 400 230 400ZM430 500C427 611 337 700 230 700C118 700 30 606 30 500C30 387 123 300 230 300C342 300 430 394 430 500ZM680 100C625 100 580 145 580 200C580 255 625 300 680 300C735 300 780 255 780 200C780 145 735 100 680 100ZM880 200C877 311 787 400 680 400C568 400 480 306 480 200C480 87 573 0 680 0C792 0 880 94 880 200Z"  horiz-adv-x="910" vert-adv-y="1000"  />

      
      <glyph glyph-name="uni26" unicode="&#x26;" d="M140 500C140 555 185 600 240 600C295 600 340 555 340 500C340 445 295 400 240 400C185 400 140 445 140 500ZM440 0C500 0 550 23 590 68C630 23 680 0 740 0L740 100C685 100 640 145 640 200C640 255 685 300 740 300L740 400C680 400 630 377 590 332C550 377 500 400 440 400L413 400C431 431 440 464 440 500C440 611 345 700 240 700C128 700 40 606 40 500C40 440 63 390 108 350C63 310 40 260 40 200C40 87 133 0 240 0ZM240 100C185 100 140 145 140 200C140 255 185 300 240 300L440 300C495 300 540 255 540 200C540 145 495 100 440 100Z"  horiz-adv-x="770" vert-adv-y="1000"  />

      
      <glyph glyph-name="uni27" unicode="&#x27;" d="M50 500L150 500L150 700L50 700Z"  horiz-adv-x="200" vert-adv-y="1000"  />

      
      <glyph glyph-name="uni28" unicode="&#x28;" d="M140 600C140 655 185 700 240 700L240 800C128 797 40 708 40 600L40 100C40-12 134-100 240-100L240 0C185 0 140 45 140 100Z"  horiz-adv-x="260" vert-adv-y="1000"  />

      
      <glyph glyph-name="uni29" unicode="&#x29;" d="M120 100C120 45 75 0 20 0L20-100C131-97 220-7 220 100L220 600C220 711 125 800 20 800L20 700C75 700 120 655 120 600Z"  horiz-adv-x="260" vert-adv-y="1000"  />

      
      <glyph glyph-name="uni2a" unicode="&#x2a;" d="M45 563L20 466L198 419L106 258L192 208L274 350L356 208L442 258L350 419L528 466L503 563L324 515L324 700L224 700L224 515Z"  horiz-adv-x="548" vert-adv-y="1000"  />

      
      <glyph glyph-name="uni2b" unicode="&#x2b;" d="M320 100L320 300L520 300L520 400L320 400L320 600L220 600L220 400L20 400L20 300L220 300L220 100Z"  horiz-adv-x="540" vert-adv-y="1000"  />

      
      <glyph glyph-name="uni2c" unicode="&#x2c;" d="M50-100L150-100L150 100L50 100Z"  horiz-adv-x="200" vert-adv-y="1000"  />

      
      <glyph glyph-name="uni2d" unicode="&#x2d;" d="M20 300L470 300L470 400L20 400Z"  horiz-adv-x="490" vert-adv-y="1000"  />

      
      <glyph glyph-name="uni2e" unicode="&#x2e;" d="M50 0L150 0L150 100L50 100Z"  horiz-adv-x="200" vert-adv-y="1000"  />

      
      <glyph glyph-name="uni2f" unicode="&#x2f;" d="M550 700L487 700L0 77L0 0L67 0L550 619Z"  horiz-adv-x="550" vert-adv-y="1000"  />

      
      <glyph glyph-name="uni30" unicode="&#x30;" d="M640 200C640 145 595 100 540 100L240 100C185 100 140 145 140 200L140 500C140 555 185 600 240 600L540 600C595 600 640 555 640 500ZM740 500C737 611 647 700 540 700L240 700C128 700 40 606 40 500L40 200C40 87 133 0 240 0L540 0C652 0 740 94 740 200Z"  horiz-adv-x="780" vert-adv-y="1000"  />

      
      <glyph glyph-name="uni31" unicode="&#x31;" d="M10 500L10 400L51 400L210 559L210 0L310 0L310 700L210 700Z"  horiz-adv-x="360" vert-adv-y="1000"  />

      
      <glyph glyph-name="uni32" unicode="&#x32;" d="M140 150C140 205 185 250 240 250L540 250C652 250 740 344 740 450L740 500C740 611 645 700 540 700L240 700C128 700 40 606 40 500L140 500C140 555 185 600 240 600L540 600C595 600 640 555 640 500L640 450C640 395 595 350 540 350L240 350C128 350 40 256 40 150L40 0L740 0L740 100L140 100Z"  horiz-adv-x="780" vert-adv-y="1000"  />

      
      <glyph glyph-name="uni33" unicode="&#x33;" d="M340 300L540 300C595 300 640 255 640 200C640 145 595 100 540 100L240 100C185 100 140 145 140 200L40 200C43 87 131 0 240 0L540 0C652 0 740 94 740 200C740 260 717 310 672 350C717 390 740 440 740 500C740 611 645 700 540 700L240 700C128 700 40 606 40 500L140 500C140 555 185 600 240 600L540 600C595 600 640 555 640 500C640 445 595 400 540 400L340 400Z"  horiz-adv-x="780" vert-adv-y="1000"  />

      
      <glyph glyph-name="uni34" unicode="&#x34;" d="M30 100L530 100L530 0L630 0L630 100L730 100L730 200L630 200L630 700L530 700L30 200ZM530 200L171 200L530 559Z"  horiz-adv-x="760" vert-adv-y="1000"  />

      
      <glyph glyph-name="uni35" unicode="&#x35;" d="M710 600L710 700L80 700L80 340L550 340C605 340 650 295 650 240L650 200C650 145 605 100 550 100L250 100C195 100 150 145 150 200L50 200C53 87 141 0 250 0L550 0C662 0 750 94 750 200L750 240C750 351 655 440 550 440L180 440L180 600Z"  horiz-adv-x="790" vert-adv-y="1000"  />

      
      <glyph glyph-name="uni36" unicode="&#x36;" d="M540 300C595 300 640 255 640 200C640 145 595 100 540 100L240 100C185 100 140 145 140 200L140 300ZM140 500C140 555 185 600 240 600L540 600C595 600 640 555 640 500L740 500C737 611 647 700 540 700L240 700C128 700 40 606 40 500L40 200C40 87 133 0 240 0L540 0C652 0 740 94 740 200C740 255 720 302 681 341C642 380 595 400 540 400L140 400Z"  horiz-adv-x="780" vert-adv-y="1000"  />

      
      <glyph glyph-name="uni37" unicode="&#x37;" d="M720 700L20 700L20 600L611 600L220 100L220 0L320 0L320 66L720 578Z"  horiz-adv-x="740" vert-adv-y="1000"  />

      
      <glyph glyph-name="uni38" unicode="&#x38;" d="M240 100C185 100 140 145 140 200C140 255 185 300 240 300L540 300C595 300 640 255 640 200C640 145 595 100 540 100ZM540 600C595 600 640 555 640 500C640 445 595 400 540 400L240 400C185 400 140 445 140 500C140 555 185 600 240 600ZM240 700C128 697 40 608 40 500C40 440 63 390 108 350C63 310 40 260 40 200C40 87 133 0 240 0L540 0C652 0 740 94 740 200C740 260 717 310 672 350C717 390 740 440 740 500C740 611 645 700 540 700Z"  horiz-adv-x="780" vert-adv-y="1000"  />

      
      <glyph glyph-name="uni39" unicode="&#x39;" d="M240 400C185 400 140 445 140 500C140 555 185 600 240 600L540 600C595 600 640 555 640 500L640 400ZM640 200C640 145 595 100 540 100L240 100C185 100 140 145 140 200L40 200C43 87 131 0 240 0L540 0C652 0 740 94 740 200L740 500C740 611 645 700 540 700L240 700C128 700 40 606 40 500C40 387 133 300 240 300L640 300Z"  horiz-adv-x="780" vert-adv-y="1000"  />

      
      <glyph glyph-name="uni3a" unicode="&#x3a;" d="M50 0L150 0L150 100L50 100ZM50 400L150 400L150 500L50 500Z"  horiz-adv-x="200" vert-adv-y="1000"  />

      
      <glyph glyph-name="uni3b" unicode="&#x3b;" d="M50-100L150-100L150 100L50 100ZM50 400L150 400L150 500L50 500Z"  horiz-adv-x="200" vert-adv-y="1000"  />

      
      <glyph glyph-name="uni3c" unicode="&#x3c;" d="M370 529L370 554L324 600L300 600L20 321L20 279L300 0L324 0L370 46L370 71L141 300Z"  horiz-adv-x="390" vert-adv-y="1000"  />

      
      <glyph glyph-name="uni3d" unicode="&#x3d;" d="M20 100L520 100L520 200L20 200ZM20 400L520 400L520 500L20 500Z"  horiz-adv-x="540" vert-adv-y="1000"  />

      
      <glyph glyph-name="uni3e" unicode="&#x3e;" d="M20 71L20 46L66 0L90 0L370 279L370 321L90 600L66 600L20 554L20 529L249 300Z"  horiz-adv-x="390" vert-adv-y="1000"  />

      
      <glyph glyph-name="uni3f" unicode="&#x3f;" d="M300 0L400 0L400 100L300 100ZM600 500C600 445 555 400 500 400C388 400 300 306 300 200L400 200C400 255 445 300 500 300C612 300 700 394 700 500C700 611 605 700 500 700L200 700C88 700 0 606 0 500L100 500C100 555 145 600 200 600L500 600C555 600 600 555 600 500Z"  horiz-adv-x="730" vert-adv-y="1000"  />

      
      <glyph glyph-name="uni40" unicode="&#x40;" d="M240 350C243 266 309 200 390 200L540 200C652 200 740 294 740 400L740 500C740 611 645 700 540 700L240 700C128 700 40 606 40 500L40 200C40 87 133 0 240 0L540 0L540 100L240 100C185 100 140 145 140 200L140 500C140 555 185 600 240 600L540 600C595 600 640 555 640 500L640 400C640 345 595 300 540 300L531 300C537 316 540 333 540 350C540 434 469 500 390 500C306 500 240 429 240 350ZM340 350C340 378 362 400 390 400C418 400 440 378 440 350C440 322 418 300 390 300C362 300 340 322 340 350Z"  horiz-adv-x="780" vert-adv-y="1000"  />

      
      <glyph glyph-name="uni44" unicode="&#x44;" d="M650 200C650 145 605 100 550 100L150 100L150 600L550 600C605 600 650 555 650 500ZM750 500C747 611 657 700 550 700L50 700L50 0L550 0C662 0 750 94 750 200Z"  horiz-adv-x="790" vert-adv-y="1000"  />

      
      <glyph glyph-name="uni46" unicode="&#x46;" d="M150 600L750 600L750 700L50 700L50 0L150 0L150 300L650 300L650 400L150 400Z"  horiz-adv-x="770" vert-adv-y="1000"  />

      
      <glyph glyph-name="uni47" unicode="&#x47;" d="M340 300L640 300L640 200C640 145 595 100 540 100L240 100C185 100 140 145 140 200L140 500C140 555 185 600 240 600L540 600C595 600 640 555 640 500L740 500C737 611 647 700 540 700L240 700C128 700 40 606 40 500L40 200C40 87 133 0 240 0L540 0C652 0 740 94 740 200L740 400L340 400Z"  horiz-adv-x="780" vert-adv-y="1000"  />

      
      <glyph glyph-name="uni49" unicode="&#x49;" d="M50 0L150 0L150 700L50 700Z"  horiz-adv-x="200" vert-adv-y="1000"  />

      
      <glyph glyph-name="uni4a" unicode="&#x4a;" d="M220 100C165 100 120 145 120 200L20 200C23 87 111 0 220 0L520 0C632 0 720 94 720 200L720 700L620 700L620 200C620 145 575 100 520 100Z"  horiz-adv-x="770" vert-adv-y="1000"  />

      
      <glyph glyph-name="uni4b" unicode="&#x4b;" d="M750 700L609 700L309 400L150 400L150 700L50 700L50 0L150 0L150 300L309 300L609 0L750 0L400 350Z"  horiz-adv-x="750" vert-adv-y="1000"  />

      
      <glyph glyph-name="uni4c" unicode="&#x4c;" d="M150 700L50 700L50 0L750 0L750 100L150 100Z"  horiz-adv-x="750" vert-adv-y="1000"  />

      
      <glyph glyph-name="uni4e" unicode="&#x4e;" d="M750 700L650 700L650 170L150 700L50 700L50 0L150 0L150 538L650 0L750 0Z"  horiz-adv-x="800" vert-adv-y="1000"  />

      
      <glyph glyph-name="uni51" unicode="&#x51;" d="M712 98C731 129 740 163 740 200L740 500C740 611 645 700 540 700L240 700C128 700 40 606 40 500L40 200C40 87 133 0 240 0L540 0C577 0 611 9 642 28L669 0L740 0L740 71ZM440 300L440 229L566 103C557 101 549 100 540 100L240 100C185 100 140 145 140 200L140 500C140 555 185 600 240 600L540 600C595 600 640 555 640 500L640 200C640 191 639 183 637 174L511 300Z"  horiz-adv-x="780" vert-adv-y="1000"  />

      
      <glyph glyph-name="uni52" unicode="&#x52;" d="M650 400C650 345 605 300 550 300L150 300L150 600L550 600C605 600 650 555 650 500ZM750 0L750 71L611 210C694 238 750 315 750 400L750 500C750 611 655 700 550 700L50 700L50 0L150 0L150 200L479 200L679 0Z"  horiz-adv-x="790" vert-adv-y="1000"  />

      
      <glyph glyph-name="uni53" unicode="&#x53;" d="M740 200C740 311 645 400 540 400L240 400C185 400 140 445 140 500C140 555 185 600 240 600L540 600C595 600 640 555 640 500L740 500C737 611 647 700 540 700L240 700C128 700 40 606 40 500C40 387 133 300 240 300L540 300C595 300 640 255 640 200C640 145 595 100 540 100L240 100C185 100 140 145 140 200L40 200C43 87 131 0 240 0L540 0C652 0 740 94 740 200Z"  horiz-adv-x="780" vert-adv-y="1000"  />

      
      <glyph glyph-name="uni55" unicode="&#x55;" d="M650 200C650 145 605 100 550 100L250 100C195 100 150 145 150 200L150 700L50 700L50 200C50 87 143 0 250 0L550 0C662 0 750 94 750 200L750 700L650 700Z"  horiz-adv-x="800" vert-adv-y="1000"  />

      
      <glyph glyph-name="uni56" unicode="&#x56;" d="M275 0L465 0L720 500L720 700L620 700L620 524L404 100L336 100L120 524L120 700L20 700L20 500Z"  horiz-adv-x="740" vert-adv-y="1000"  />

      
      <glyph glyph-name="uni57" unicode="&#x57;" d="M650 100C595 100 550 145 550 200L550 700L450 700L450 200C450 145 405 100 350 100L250 100C195 100 150 145 150 200L150 700L50 700L50 200C50 87 143 0 250 0L350 0C410 0 460 23 500 68C540 23 590 0 650 0L750 0C862 0 950 94 950 200L950 700L850 700L850 200C850 145 805 100 750 100Z"  horiz-adv-x="1000" vert-adv-y="1000"  />

      
      <glyph glyph-name="uni59" unicode="&#x59;" d="M720 550L720 700L620 700L620 591L370 316L120 591L120 700L20 700L20 550L320 220L320 0L420 0L420 220Z"  horiz-adv-x="740" vert-adv-y="1000"  />

      
      <glyph glyph-name="uni5a" unicode="&#x5a;" d="M30 700L30 600L585 600L30 100L30 0L730 0L730 100L179 100L730 600L730 700Z"  horiz-adv-x="760" vert-adv-y="1000"  />

      
      <glyph glyph-name="uni5b" unicode="&#x5b;" d="M50 800L50-100L350-100L350 0L150 0L150 700L350 700L350 800Z"  horiz-adv-x="350" vert-adv-y="1000"  />

      
      <glyph glyph-name="uni5c" unicode="&#x5c;" d="M0 619L483 0L550 0L550 77L63 700L0 700Z"  horiz-adv-x="550" vert-adv-y="1000"  />

      
      <glyph glyph-name="uni5d" unicode="&#x5d;" d="M0-100L300-100L300 800L0 800L0 700L200 700L200 0L0 0Z"  horiz-adv-x="350" vert-adv-y="1000"  />

      
      <glyph glyph-name="uni5e" unicode="&#x5e;" d="M349 450L374 450L420 496L420 521L241 700L199 700L20 521L20 496L66 450L91 450L220 579Z"  horiz-adv-x="440" vert-adv-y="1000"  />

      
      <glyph glyph-name="uni5f" unicode="&#x5f;" d="M20 0L620 0L620 100L20 100Z"  horiz-adv-x="640" vert-adv-y="1000"  />

      
      <glyph glyph-name="uni60" unicode="&#x60;" d="M50 500L150 500L150 700L50 700Z"  horiz-adv-x="200" vert-adv-y="1000"  />

      
      <glyph glyph-name="uni7b" unicode="&#x7b;" d="M220 200C220 260 197 310 152 350C197 390 220 440 220 500L220 600C220 655 265 700 320 700L320 800C208 797 120 708 120 600L120 500C120 445 75 400 20 400L20 300C75 300 120 255 120 200L120 100C120-12 214-100 320-100L320 0C265 0 220 45 220 100Z"  horiz-adv-x="320" vert-adv-y="1000"  />

      
      <glyph glyph-name="uni7c" unicode="&#x7c;" d="M50-100L150-100L150 800L50 800Z"  horiz-adv-x="200" vert-adv-y="1000"  />

      
      <glyph glyph-name="uni7d" unicode="&#x7d;" d="M100 100C100 45 55 0 0 0L0-100C111-97 200-7 200 100L200 200C200 255 245 300 300 300L300 400C245 400 200 445 200 500L200 600C200 711 105 800 0 800L0 700C55 700 100 655 100 600L100 500C100 440 123 390 168 350C123 310 100 260 100 200Z"  horiz-adv-x="320" vert-adv-y="1000"  />

      
      <glyph glyph-name="uni7e" unicode="&#x7e;" d="M20 521L20 496L66 450L91 450L220 579L370 429L570 629L570 654L524 700L499 700L370 571L220 721Z"  horiz-adv-x="590" vert-adv-y="1000"  />

      
      <glyph glyph-name="uni41" unicode="&#x41;" d="M550 600C605 600 650 555 650 500L650 300L150 300L150 500C150 555 195 600 250 600ZM750 500C747 611 657 700 550 700L250 700C138 700 50 606 50 500L50 0L150 0L150 200L650 200L650 0L750 0Z"  horiz-adv-x="800" vert-adv-y="1000"  />

      
      <glyph glyph-name="uni42" unicode="&#x42;" d="M550 0C662 3 750 92 750 200C750 260 727 310 682 350C727 390 750 440 750 500C750 611 655 700 550 700L50 700L50 0ZM550 300C605 300 650 255 650 200C650 145 605 100 550 100L150 100L150 300ZM150 600L550 600C605 600 650 555 650 500C650 445 605 400 550 400L150 400Z"  horiz-adv-x="790" vert-adv-y="1000"  />

      
      <glyph glyph-name="uni43" unicode="&#x43;" d="M240 700C128 697 40 608 40 500L40 200C40 87 133 0 240 0L540 0C652 0 740 94 740 200L640 200C640 145 595 100 540 100L240 100C185 100 140 145 140 200L140 500C140 555 185 600 240 600L540 600C595 600 640 555 640 500L740 500C737 611 647 700 540 700Z"  horiz-adv-x="770" vert-adv-y="1000"  />

      
      <glyph glyph-name="uni45" unicode="&#x45;" d="M150 600L750 600L750 700L50 700L50 0L750 0L750 100L150 100L150 300L650 300L650 400L150 400Z"  horiz-adv-x="780" vert-adv-y="1000"  />

      
      <glyph glyph-name="uni48" unicode="&#x48;" d="M150 700L50 700L50 0L150 0L150 300L650 300L650 0L750 0L750 700L650 700L650 400L150 400Z"  horiz-adv-x="800" vert-adv-y="1000"  />

      
      <glyph glyph-name="uni4f" unicode="&#x4f;" d="M640 200C640 145 595 100 540 100L240 100C185 100 140 145 140 200L140 500C140 555 185 600 240 600L540 600C595 600 640 555 640 500ZM740 500C740 609 646 700 540 700L240 700C130 700 40 610 40 500L40 200C40 89 129 0 240 0L540 0C650 0 740 90 740 200Z"  horiz-adv-x="780" vert-adv-y="1000"  />

      
      <glyph glyph-name="uni50" unicode="&#x50;" d="M650 400C650 345 605 300 550 300L150 300L150 600L550 600C605 600 650 555 650 500ZM750 500C747 611 657 700 550 700L50 700L50 0L150 0L150 200L550 200C662 200 750 294 750 400Z"  horiz-adv-x="780" vert-adv-y="1000"  />

      
      <glyph glyph-name="uni54" unicode="&#x54;" d="M700 600L700 700L0 700L0 600L300 600L300 0L400 0L400 600Z"  horiz-adv-x="700" vert-adv-y="1000"  />

      
      <glyph glyph-name="uni58" unicode="&#x58;" d="M630 700L630 600L380 412L130 600L130 700L30 700L30 550L297 349L30 148L30 0L130 0L130 98L380 286L630 98L630 0L730 0L730 148L463 349L730 550L730 700Z"  horiz-adv-x="760" vert-adv-y="1000"  />

      
      <glyph glyph-name="uni0410" unicode="&#x0410;" d="M550 600C605 600 650 555 650 500L650 300L150 300L150 500C150 555 195 600 250 600ZM750 500C747 611 657 700 550 700L250 700C138 700 50 606 50 500L50 0L150 0L150 200L650 200L650 0L750 0Z"  horiz-adv-x="800" vert-adv-y="1000"  />

      
      <glyph glyph-name="uni0411" unicode="&#x0411;" d="M650 200C650 145 605 100 550 100L150 100L150 333L550 333C605 333 650 288 650 233ZM750 233C747 344 657 433 550 433L150 433L150 600L650 600L650 700L50 700L50 0L550 0C662 0 750 94 750 200Z"  horiz-adv-x="780" vert-adv-y="1000"  />

      
      <glyph glyph-name="uni0412" unicode="&#x0412;" d="M550 0C662 3 750 92 750 200C750 260 727 310 682 350C727 390 750 440 750 500C750 611 655 700 550 700L50 700L50 0ZM550 300C605 300 650 255 650 200C650 145 605 100 550 100L150 100L150 300ZM150 600L550 600C605 600 650 555 650 500C650 445 605 400 550 400L150 400Z"  horiz-adv-x="790" vert-adv-y="1000"  />

      
      <glyph glyph-name="uni0413" unicode="&#x0413;" d="M650 600L650 700L50 700L50 0L150 0L150 600Z"  horiz-adv-x="650" vert-adv-y="1000"  />

      
      <glyph glyph-name="uni0414" unicode="&#x0414;" d="M200 500C200 555 245 600 300 600L700 600L700 100L200 100ZM0 0L900 0L900 100L800 100L800 700L300 700C188 700 100 606 100 500L100 100L0 100Z"  horiz-adv-x="900" vert-adv-y="1000"  />

      
      <glyph glyph-name="uni0415" unicode="&#x0415;" d="M150 600L750 600L750 700L50 700L50 0L750 0L750 100L150 100L150 300L650 300L650 400L150 400Z"  horiz-adv-x="780" vert-adv-y="1000"  />

      
      <glyph glyph-name="uni0416" unicode="&#x0416;" d="M420 434L120 600L120 700L20 700L20 541L367 349L20 157L20 0L120 0L120 98L420 264L420 0L520 0L520 264L820 98L820 0L920 0L920 157L573 349L920 541L920 700L820 700L820 600L520 434L520 700L420 700Z"  horiz-adv-x="940" vert-adv-y="1000"  />

      
      <glyph glyph-name="uni0417" unicode="&#x0417;" d="M330 300L530 300C585 300 630 255 630 200C630 145 585 100 530 100L230 100C175 100 130 145 130 200L30 200C33 87 121 0 230 0L530 0C642 0 730 94 730 200C730 260 707 310 662 350C707 390 730 440 730 500C730 611 635 700 530 700L230 700C118 700 30 606 30 500L130 500C130 555 175 600 230 600L530 600C585 600 630 555 630 500C630 445 585 400 530 400L330 400Z"  horiz-adv-x="770" vert-adv-y="1000"  />

      
      <glyph glyph-name="uni0418" unicode="&#x0418;" d="M50 0L150 0L650 565L650 0L750 0L750 700L650 700L150 145L150 700L50 700Z"  horiz-adv-x="800" vert-adv-y="1000"  />

      
      <glyph glyph-name="uni0419" unicode="&#x0419;" d="M500 900C500 845 455 800 400 800C345 800 300 845 300 900L200 900C203 787 291 700 400 700C512 700 600 794 600 900ZM50 0L150 0L650 565L650 0L750 0L750 700L650 700L150 145L150 700L50 700Z"  horiz-adv-x="800" vert-adv-y="1000"  />

      
      <glyph glyph-name="uni041A" unicode="&#x041A;" d="M750 700L609 700L309 400L150 400L150 700L50 700L50 0L150 0L150 300L309 300L609 0L750 0L400 350Z"  horiz-adv-x="750" vert-adv-y="1000"  />

      
      <glyph glyph-name="uni041B" unicode="&#x041B;" d="M250 700C138 697 50 608 50 500L50 0L150 0L150 500C150 555 195 600 250 600L650 600L650 0L750 0L750 700Z"  horiz-adv-x="800" vert-adv-y="1000"  />

      
      <glyph glyph-name="uni041C" unicode="&#x041C;" d="M450 88L750 521L750 0L850 0L850 700L750 700L450 267L150 700L50 700L50 0L150 0L150 521Z"  horiz-adv-x="900" vert-adv-y="1000"  />

      
      <glyph glyph-name="uni041D" unicode="&#x041D;" d="M150 700L50 700L50 0L150 0L150 300L650 300L650 0L750 0L750 700L650 700L650 400L150 400Z"  horiz-adv-x="800" vert-adv-y="1000"  />

      
      <glyph glyph-name="uni041E" unicode="&#x041E;" d="M640 200C640 145 595 100 540 100L240 100C185 100 140 145 140 200L140 500C140 555 185 600 240 600L540 600C595 600 640 555 640 500ZM740 500C740 609 646 700 540 700L240 700C130 700 40 610 40 500L40 200C40 89 129 0 240 0L540 0C650 0 740 90 740 200Z"  horiz-adv-x="780" vert-adv-y="1000"  />

      
      <glyph glyph-name="uni041F" unicode="&#x041F;" d="M750 700L50 700L50 0L150 0L150 600L650 600L650 0L750 0Z"  horiz-adv-x="800" vert-adv-y="1000"  />

      
      <glyph glyph-name="uni0420" unicode="&#x0420;" d="M650 400C650 345 605 300 550 300L150 300L150 600L550 600C605 600 650 555 650 500ZM750 500C747 611 657 700 550 700L50 700L50 0L150 0L150 200L550 200C662 200 750 294 750 400Z"  horiz-adv-x="780" vert-adv-y="1000"  />

      
      <glyph glyph-name="uni0421" unicode="&#x0421;" d="M240 700C128 697 40 608 40 500L40 200C40 87 133 0 240 0L540 0C652 0 740 94 740 200L640 200C640 145 595 100 540 100L240 100C185 100 140 145 140 200L140 500C140 555 185 600 240 600L540 600C595 600 640 555 640 500L740 500C737 611 647 700 540 700Z"  horiz-adv-x="770" vert-adv-y="1000"  />

      
      <glyph glyph-name="uni0422" unicode="&#x0422;" d="M700 600L700 700L0 700L0 600L300 600L300 0L400 0L400 600Z"  horiz-adv-x="700" vert-adv-y="1000"  />

      
      <glyph glyph-name="uni0423" unicode="&#x0423;" d="M260 100C205 100 160 145 160 200L60 200C63 87 151 0 260 0L540 0C652 0 740 94 740 200L740 700L640 700L640 400L240 400C185 400 140 445 140 500L140 700L40 700L40 500C40 387 133 300 240 300L640 300L640 200C640 145 595 100 540 100Z"  horiz-adv-x="790" vert-adv-y="1000"  />

      
      <glyph glyph-name="uni0424" unicode="&#x0424;" d="M240 170C185 170 140 215 140 270L140 430C140 485 185 530 240 530L380 530L380 170ZM620 530C675 530 720 485 720 430L720 270C720 215 675 170 620 170L480 170L480 530ZM380 630L240 630C130 630 40 540 40 430L40 270C40 159 129 70 240 70L380 70L380-30L480-30L480 70L620 70C730 70 820 160 820 270L820 430C820 539 729 630 620 630L480 630L480 730L380 730Z"  horiz-adv-x="860" vert-adv-y="1000"  />

      
      <glyph glyph-name="uni0425" unicode="&#x0425;" d="M630 700L630 600L380 412L130 600L130 700L30 700L30 550L297 349L30 148L30 0L130 0L130 98L380 286L630 98L630 0L730 0L730 148L463 349L730 550L730 700Z"  horiz-adv-x="760" vert-adv-y="1000"  />

      
      <glyph glyph-name="uni0426" unicode="&#x0426;" d="M750 700L650 700L650 100L150 100L150 700L50 700L50 0L750 0L750-100L850-100L850 100L750 100Z"  horiz-adv-x="860" vert-adv-y="1000"  />

      
      <glyph glyph-name="uni0427" unicode="&#x0427;" d="M240 351C185 351 140 396 140 451L140 700L40 700L40 451C40 338 133 251 240 251L640 251L640 0L740 0L740 700L640 700L640 351Z"  horiz-adv-x="790" vert-adv-y="1000"  />

      
      <glyph glyph-name="uni0428" unicode="&#x0428;" d="M150 700L50 700L50 0L950 0L950 700L850 700L850 100L550 100L550 700L450 700L450 100L150 100Z"  horiz-adv-x="1000" vert-adv-y="1000"  />

      
      <glyph glyph-name="uni0429" unicode="&#x0429;" d="M950 700L850 700L850 100L550 100L550 700L450 700L450 100L150 100L150 700L50 700L50 0L950 0L950-100L1050-100L1050 100L950 100Z"  horiz-adv-x="1080" vert-adv-y="1000"  />

      
      <glyph glyph-name="uni042A" unicode="&#x042A;" d="M720 200C720 145 675 100 620 100L220 100L220 350L620 350C675 350 720 305 720 250ZM20 600L120 600L120 0L620 0C732 0 820 94 820 200L820 250C820 361 725 450 620 450L220 450L220 700L20 700Z"  horiz-adv-x="850" vert-adv-y="1000"  />

      
      <glyph glyph-name="uni042B" unicode="&#x042B;" d="M650 200C650 145 605 100 550 100L150 100L150 350L550 350C605 350 650 305 650 250ZM750 250C747 361 657 450 550 450L150 450L150 700L50 700L50 0L550 0C662 0 750 94 750 200ZM850 0L950 0L950 700L850 700Z"  horiz-adv-x="1000" vert-adv-y="1000"  />

      
      <glyph glyph-name="uni042C" unicode="&#x042C;" d="M650 200C650 145 605 100 550 100L150 100L150 350L550 350C605 350 650 305 650 250ZM750 250C747 361 657 450 550 450L150 450L150 700L50 700L50 0L550 0C662 0 750 94 750 200Z"  horiz-adv-x="780" vert-adv-y="1000"  />

      
      <glyph glyph-name="uni042D" unicode="&#x042D;" d="M330 300L630 300L630 200C630 145 585 100 530 100L230 100C175 100 130 145 130 200L30 200C33 87 121 0 230 0L530 0C642 0 730 94 730 200L730 500C730 611 635 700 530 700L230 700C118 700 30 606 30 500L130 500C130 555 175 600 230 600L530 600C585 600 630 555 630 500L630 400L330 400Z"  horiz-adv-x="770" vert-adv-y="1000"  />

      
      <glyph glyph-name="uni042E" unicode="&#x042E;" d="M850 200C850 145 805 100 750 100L450 100C395 100 350 145 350 200L350 500C350 555 395 600 450 600L750 600C805 600 850 555 850 500ZM150 700L50 700L50 0L150 0L150 300L250 300L250 200C250 87 343 0 450 0L750 0C862 0 950 94 950 200L950 500C950 611 855 700 750 700L450 700C338 700 250 606 250 500L250 400L150 400Z"  horiz-adv-x="990" vert-adv-y="1000"  />

      
      <glyph glyph-name="uni042F" unicode="&#x042F;" d="M150 500C150 555 195 600 250 600L650 600L650 300L250 300C195 300 150 345 150 400ZM321 200L650 200L650 0L750 0L750 700L250 700C138 700 50 606 50 500L50 400C50 311 109 236 189 210L50 71L50 0L121 0Z"  horiz-adv-x="800" vert-adv-y="1000"  />

      
      <glyph glyph-name="uni201D" unicode="&#x201D;" d="M50 500L150 500L150 700L50 700ZM250 500L350 500L350 700L250 700Z"  horiz-adv-x="400" vert-adv-y="1000"  />

      
      <glyph glyph-name="uni201C" unicode="&#x201C;" d="M50 500L150 500L150 700L50 700ZM250 500L350 500L350 700L250 700Z"  horiz-adv-x="400" vert-adv-y="1000"  />

      
      <glyph glyph-name="uni2019" unicode="&#x2019;" d="M50 500L150 500L150 700L50 700Z"  horiz-adv-x="200" vert-adv-y="1000"  />

      
      <glyph glyph-name="uni2018" unicode="&#x2018;" d="M50 500L150 500L150 700L50 700Z"  horiz-adv-x="200" vert-adv-y="1000"  />

      
      <glyph glyph-name="uni4d" unicode="&#x4d;" d="M450 88L750 521L750 0L850 0L850 700L750 700L450 267L150 700L50 700L50 0L150 0L150 521Z"  horiz-adv-x="900" vert-adv-y="1000"  />

      
      <glyph glyph-name="uni0404" unicode="&#x0404;" d="M440 400L140 400L140 500C140 555 185 600 240 600L540 600C595 600 640 555 640 500L740 500C740 606 652 700 540 700L240 700C135 700 40 611 40 500L40 200C40 94 128 0 240 0L540 0C649 0 737 87 740 200L640 200C640 145 595 100 540 100L240 100C185 100 140 145 140 200L140 300L440 300Z"  horiz-adv-x="770" vert-adv-y="1000"  />

      
      <glyph glyph-name="uni0401" unicode="&#x0401;" d="M150 600L750 600L750 700L50 700L50 0L750 0L750 100L150 100L150 300L650 300L650 400L150 400ZM223 780L323 780L323 880L223 880ZM483 780L583 780L583 880L483 880Z"  horiz-adv-x="780" vert-adv-y="1000"  />

      
      <glyph glyph-name="uni61" unicode="&#x61;" d="M550 600C605 600 650 555 650 500L650 300L150 300L150 500C150 555 195 600 250 600ZM750 500C747 611 657 700 550 700L250 700C138 700 50 606 50 500L50 0L150 0L150 200L650 200L650 0L750 0Z"  horiz-adv-x="800" vert-adv-y="1000"  />

      
      <glyph glyph-name="uni62" unicode="&#x62;" d="M550 0C662 3 750 92 750 200C750 260 727 310 682 350C727 390 750 440 750 500C750 611 655 700 550 700L50 700L50 0ZM550 300C605 300 650 255 650 200C650 145 605 100 550 100L150 100L150 300ZM150 600L550 600C605 600 650 555 650 500C650 445 605 400 550 400L150 400Z"  horiz-adv-x="790" vert-adv-y="1000"  />

      
      <glyph glyph-name="uni63" unicode="&#x63;" d="M240 700C128 697 40 608 40 500L40 200C40 87 133 0 240 0L540 0C652 0 740 94 740 200L640 200C640 145 595 100 540 100L240 100C185 100 140 145 140 200L140 500C140 555 185 600 240 600L540 600C595 600 640 555 640 500L740 500C737 611 647 700 540 700Z"  horiz-adv-x="770" vert-adv-y="1000"  />

      
      <glyph glyph-name="uni64" unicode="&#x64;" d="M650 200C650 145 605 100 550 100L150 100L150 600L550 600C605 600 650 555 650 500ZM750 500C747 611 657 700 550 700L50 700L50 0L550 0C662 0 750 94 750 200Z"  horiz-adv-x="790" vert-adv-y="1000"  />

      
      <glyph glyph-name="uni65" unicode="&#x65;" d="M150 600L750 600L750 700L50 700L50 0L750 0L750 100L150 100L150 300L650 300L650 400L150 400Z"  horiz-adv-x="780" vert-adv-y="1000"  />

      
      <glyph glyph-name="uni66" unicode="&#x66;" d="M150 600L750 600L750 700L50 700L50 0L150 0L150 300L650 300L650 400L150 400Z"  horiz-adv-x="770" vert-adv-y="1000"  />

      
      <glyph glyph-name="uni67" unicode="&#x67;" d="M340 300L640 300L640 200C640 145 595 100 540 100L240 100C185 100 140 145 140 200L140 500C140 555 185 600 240 600L540 600C595 600 640 555 640 500L740 500C737 611 647 700 540 700L240 700C128 700 40 606 40 500L40 200C40 87 133 0 240 0L540 0C652 0 740 94 740 200L740 400L340 400Z"  horiz-adv-x="780" vert-adv-y="1000"  />

      
      <glyph glyph-name="uni68" unicode="&#x68;" d="M150 700L50 700L50 0L150 0L150 300L650 300L650 0L750 0L750 700L650 700L650 400L150 400Z"  horiz-adv-x="800" vert-adv-y="1000"  />

      
      <glyph glyph-name="uni69" unicode="&#x69;" d="M50 0L150 0L150 700L50 700Z"  horiz-adv-x="200" vert-adv-y="1000"  />

      
      <glyph glyph-name="uni6a" unicode="&#x6a;" d="M220 100C165 100 120 145 120 200L20 200C23 87 111 0 220 0L520 0C632 0 720 94 720 200L720 700L620 700L620 200C620 145 575 100 520 100Z"  horiz-adv-x="770" vert-adv-y="1000"  />

      
      <glyph glyph-name="uni6b" unicode="&#x6b;" d="M750 700L609 700L309 400L150 400L150 700L50 700L50 0L150 0L150 300L309 300L609 0L750 0L400 350Z"  horiz-adv-x="750" vert-adv-y="1000"  />

      
      <glyph glyph-name="uni6c" unicode="&#x6c;" d="M150 700L50 700L50 0L750 0L750 100L150 100Z"  horiz-adv-x="750" vert-adv-y="1000"  />

      
      <glyph glyph-name="uni6d" unicode="&#x6d;" d="M450 88L750 521L750 0L850 0L850 700L750 700L450 267L150 700L50 700L50 0L150 0L150 521Z"  horiz-adv-x="900" vert-adv-y="1000"  />

      
      <glyph glyph-name="uni6e" unicode="&#x6e;" d="M750 700L650 700L650 170L150 700L50 700L50 0L150 0L150 538L650 0L750 0Z"  horiz-adv-x="800" vert-adv-y="1000"  />

      
      <glyph glyph-name="uni6f" unicode="&#x6f;" d="M640 200C640 145 595 100 540 100L240 100C185 100 140 145 140 200L140 500C140 555 185 600 240 600L540 600C595 600 640 555 640 500ZM740 500C740 609 646 700 540 700L240 700C130 700 40 610 40 500L40 200C40 89 129 0 240 0L540 0C650 0 740 90 740 200Z"  horiz-adv-x="780" vert-adv-y="1000"  />

      
      <glyph glyph-name="uni70" unicode="&#x70;" d="M650 400C650 345 605 300 550 300L150 300L150 600L550 600C605 600 650 555 650 500ZM750 500C747 611 657 700 550 700L50 700L50 0L150 0L150 200L550 200C662 200 750 294 750 400Z"  horiz-adv-x="780" vert-adv-y="1000"  />

      
      <glyph glyph-name="uni71" unicode="&#x71;" d="M712 98C731 129 740 163 740 200L740 500C740 611 645 700 540 700L240 700C128 700 40 606 40 500L40 200C40 87 133 0 240 0L540 0C577 0 611 9 642 28L669 0L740 0L740 71ZM440 300L440 229L566 103C557 101 549 100 540 100L240 100C185 100 140 145 140 200L140 500C140 555 185 600 240 600L540 600C595 600 640 555 640 500L640 200C640 191 639 183 637 174L511 300Z"  horiz-adv-x="780" vert-adv-y="1000"  />

      
      <glyph glyph-name="uni72" unicode="&#x72;" d="M650 400C650 345 605 300 550 300L150 300L150 600L550 600C605 600 650 555 650 500ZM750 0L750 71L611 210C694 238 750 315 750 400L750 500C750 611 655 700 550 700L50 700L50 0L150 0L150 200L479 200L679 0Z"  horiz-adv-x="790" vert-adv-y="1000"  />

      
      <glyph glyph-name="uni73" unicode="&#x73;" d="M740 200C740 311 645 400 540 400L240 400C185 400 140 445 140 500C140 555 185 600 240 600L540 600C595 600 640 555 640 500L740 500C737 611 647 700 540 700L240 700C128 700 40 606 40 500C40 387 133 300 240 300L540 300C595 300 640 255 640 200C640 145 595 100 540 100L240 100C185 100 140 145 140 200L40 200C43 87 131 0 240 0L540 0C652 0 740 94 740 200Z"  horiz-adv-x="780" vert-adv-y="1000"  />

      
      <glyph glyph-name="uni74" unicode="&#x74;" d="M700 600L700 700L0 700L0 600L300 600L300 0L400 0L400 600Z"  horiz-adv-x="700" vert-adv-y="1000"  />

      
      <glyph glyph-name="uni75" unicode="&#x75;" d="M650 200C650 145 605 100 550 100L250 100C195 100 150 145 150 200L150 700L50 700L50 200C50 87 143 0 250 0L550 0C662 0 750 94 750 200L750 700L650 700Z"  horiz-adv-x="800" vert-adv-y="1000"  />

      
      <glyph glyph-name="uni76" unicode="&#x76;" d="M275 0L465 0L720 500L720 700L620 700L620 524L404 100L336 100L120 524L120 700L20 700L20 500Z"  horiz-adv-x="740" vert-adv-y="1000"  />

      
      <glyph glyph-name="uni77" unicode="&#x77;" d="M650 100C595 100 550 145 550 200L550 700L450 700L450 200C450 145 405 100 350 100L250 100C195 100 150 145 150 200L150 700L50 700L50 200C50 87 143 0 250 0L350 0C410 0 460 23 500 68C540 23 590 0 650 0L750 0C862 0 950 94 950 200L950 700L850 700L850 200C850 145 805 100 750 100Z"  horiz-adv-x="1000" vert-adv-y="1000"  />

      
      <glyph glyph-name="uni78" unicode="&#x78;" d="M630 700L630 600L380 412L130 600L130 700L30 700L30 550L297 349L30 148L30 0L130 0L130 98L380 286L630 98L630 0L730 0L730 148L463 349L730 550L730 700Z"  horiz-adv-x="760" vert-adv-y="1000"  />

      
      <glyph glyph-name="uni79" unicode="&#x79;" d="M720 550L720 700L620 700L620 591L370 316L120 591L120 700L20 700L20 550L320 220L320 0L420 0L420 220Z"  horiz-adv-x="740" vert-adv-y="1000"  />

      
      <glyph glyph-name="uni7a" unicode="&#x7a;" d="M30 700L30 600L585 600L30 100L30 0L730 0L730 100L179 100L730 600L730 700Z"  horiz-adv-x="760" vert-adv-y="1000"  />

      
      <glyph glyph-name="uni0430" unicode="&#x0430;" d="M550 600C605 600 650 555 650 500L650 300L150 300L150 500C150 555 195 600 250 600ZM750 500C747 611 657 700 550 700L250 700C138 700 50 606 50 500L50 0L150 0L150 200L650 200L650 0L750 0Z"  horiz-adv-x="800" vert-adv-y="1000"  />

      
      <glyph glyph-name="uni0431" unicode="&#x0431;" d="M650 200C650 145 605 100 550 100L150 100L150 333L550 333C605 333 650 288 650 233ZM750 233C747 344 657 433 550 433L150 433L150 600L650 600L650 700L50 700L50 0L550 0C662 0 750 94 750 200Z"  horiz-adv-x="780" vert-adv-y="1000"  />

      
      <glyph glyph-name="uni0432" unicode="&#x0432;" d="M550 0C662 3 750 92 750 200C750 260 727 310 682 350C727 390 750 440 750 500C750 611 655 700 550 700L50 700L50 0ZM550 300C605 300 650 255 650 200C650 145 605 100 550 100L150 100L150 300ZM150 600L550 600C605 600 650 555 650 500C650 445 605 400 550 400L150 400Z"  horiz-adv-x="790" vert-adv-y="1000"  />

      
      <glyph glyph-name="uni0433" unicode="&#x0433;" d="M650 600L650 700L50 700L50 0L150 0L150 600Z"  horiz-adv-x="650" vert-adv-y="1000"  />

      
      <glyph glyph-name="uni0434" unicode="&#x0434;" d="M200 500C200 555 245 600 300 600L700 600L700 100L200 100ZM0 0L900 0L900 100L800 100L800 700L300 700C188 700 100 606 100 500L100 100L0 100Z"  horiz-adv-x="900" vert-adv-y="1000"  />

      
      <glyph glyph-name="uni0435" unicode="&#x0435;" d="M150 600L750 600L750 700L50 700L50 0L750 0L750 100L150 100L150 300L650 300L650 400L150 400Z"  horiz-adv-x="780" vert-adv-y="1000"  />

      
      <glyph glyph-name="uni0436" unicode="&#x0436;" d="M420 434L120 600L120 700L20 700L20 541L367 349L20 157L20 0L120 0L120 98L420 264L420 0L520 0L520 264L820 98L820 0L920 0L920 157L573 349L920 541L920 700L820 700L820 600L520 434L520 700L420 700Z"  horiz-adv-x="940" vert-adv-y="1000"  />

      
      <glyph glyph-name="uni0437" unicode="&#x0437;" d="M330 300L530 300C585 300 630 255 630 200C630 145 585 100 530 100L230 100C175 100 130 145 130 200L30 200C33 87 121 0 230 0L530 0C642 0 730 94 730 200C730 260 707 310 662 350C707 390 730 440 730 500C730 611 635 700 530 700L230 700C118 700 30 606 30 500L130 500C130 555 175 600 230 600L530 600C585 600 630 555 630 500C630 445 585 400 530 400L330 400Z"  horiz-adv-x="770" vert-adv-y="1000"  />

      
      <glyph glyph-name="uni0438" unicode="&#x0438;" d="M50 0L150 0L650 565L650 0L750 0L750 700L650 700L150 145L150 700L50 700Z"  horiz-adv-x="800" vert-adv-y="1000"  />

      
      <glyph glyph-name="uni0439" unicode="&#x0439;" d="M500 900C500 845 455 800 400 800C345 800 300 845 300 900L200 900C203 787 291 700 400 700C512 700 600 794 600 900ZM50 0L150 0L650 565L650 0L750 0L750 700L650 700L150 145L150 700L50 700Z"  horiz-adv-x="800" vert-adv-y="1000"  />

      
      <glyph glyph-name="uni043A" unicode="&#x043A;" d="M750 700L609 700L309 400L150 400L150 700L50 700L50 0L150 0L150 300L309 300L609 0L750 0L400 350Z"  horiz-adv-x="750" vert-adv-y="1000"  />

      
      <glyph glyph-name="uni043B" unicode="&#x043B;" d="M250 700C138 697 50 608 50 500L50 0L150 0L150 500C150 555 195 600 250 600L650 600L650 0L750 0L750 700Z"  horiz-adv-x="800" vert-adv-y="1000"  />

      
      <glyph glyph-name="uni043C" unicode="&#x043C;" d="M450 88L750 521L750 0L850 0L850 700L750 700L450 267L150 700L50 700L50 0L150 0L150 521Z"  horiz-adv-x="900" vert-adv-y="1000"  />

      
      <glyph glyph-name="uni043D" unicode="&#x043D;" d="M150 700L50 700L50 0L150 0L150 300L650 300L650 0L750 0L750 700L650 700L650 400L150 400Z"  horiz-adv-x="800" vert-adv-y="1000"  />

      
      <glyph glyph-name="uni043E" unicode="&#x043E;" d="M640 200C640 145 595 100 540 100L240 100C185 100 140 145 140 200L140 500C140 555 185 600 240 600L540 600C595 600 640 555 640 500ZM740 500C740 609 646 700 540 700L240 700C130 700 40 610 40 500L40 200C40 89 129 0 240 0L540 0C650 0 740 90 740 200Z"  horiz-adv-x="780" vert-adv-y="1000"  />

      
      <glyph glyph-name="uni043F" unicode="&#x043F;" d="M750 700L50 700L50 0L150 0L150 600L650 600L650 0L750 0Z"  horiz-adv-x="800" vert-adv-y="1000"  />

      
      <glyph glyph-name="uni0440" unicode="&#x0440;" d="M650 400C650 345 605 300 550 300L150 300L150 600L550 600C605 600 650 555 650 500ZM750 500C747 611 657 700 550 700L50 700L50 0L150 0L150 200L550 200C662 200 750 294 750 400Z"  horiz-adv-x="780" vert-adv-y="1000"  />

      
      <glyph glyph-name="uni0441" unicode="&#x0441;" d="M240 700C128 697 40 608 40 500L40 200C40 87 133 0 240 0L540 0C652 0 740 94 740 200L640 200C640 145 595 100 540 100L240 100C185 100 140 145 140 200L140 500C140 555 185 600 240 600L540 600C595 600 640 555 640 500L740 500C737 611 647 700 540 700Z"  horiz-adv-x="770" vert-adv-y="1000"  />

      
      <glyph glyph-name="uni0442" unicode="&#x0442;" d="M700 600L700 700L0 700L0 600L300 600L300 0L400 0L400 600Z"  horiz-adv-x="700" vert-adv-y="1000"  />

      
      <glyph glyph-name="uni0443" unicode="&#x0443;" d="M260 100C205 100 160 145 160 200L60 200C63 87 151 0 260 0L540 0C652 0 740 94 740 200L740 700L640 700L640 400L240 400C185 400 140 445 140 500L140 700L40 700L40 500C40 387 133 300 240 300L640 300L640 200C640 145 595 100 540 100Z"  horiz-adv-x="790" vert-adv-y="1000"  />

      
      <glyph glyph-name="uni0444" unicode="&#x0444;" d="M240 170C185 170 140 215 140 270L140 430C140 485 185 530 240 530L380 530L380 170ZM620 530C675 530 720 485 720 430L720 270C720 215 675 170 620 170L480 170L480 530ZM380 630L240 630C130 630 40 540 40 430L40 270C40 159 129 70 240 70L380 70L380-30L480-30L480 70L620 70C730 70 820 160 820 270L820 430C820 539 729 630 620 630L480 630L480 730L380 730Z"  horiz-adv-x="860" vert-adv-y="1000"  />

      
      <glyph glyph-name="uni0445" unicode="&#x0445;" d="M630 700L630 600L380 412L130 600L130 700L30 700L30 550L297 349L30 148L30 0L130 0L130 98L380 286L630 98L630 0L730 0L730 148L463 349L730 550L730 700Z"  horiz-adv-x="760" vert-adv-y="1000"  />

      
      <glyph glyph-name="uni0446" unicode="&#x0446;" d="M750 700L650 700L650 100L150 100L150 700L50 700L50 0L750 0L750-100L850-100L850 100L750 100Z"  horiz-adv-x="860" vert-adv-y="1000"  />

      
      <glyph glyph-name="uni0447" unicode="&#x0447;" d="M240 351C185 351 140 396 140 451L140 700L40 700L40 451C40 338 133 251 240 251L640 251L640 0L740 0L740 700L640 700L640 351Z"  horiz-adv-x="790" vert-adv-y="1000"  />

      
      <glyph glyph-name="uni0448" unicode="&#x0448;" d="M150 700L50 700L50 0L950 0L950 700L850 700L850 100L550 100L550 700L450 700L450 100L150 100Z"  horiz-adv-x="1000" vert-adv-y="1000"  />

      
      <glyph glyph-name="uni0449" unicode="&#x0449;" d="M950 700L850 700L850 100L550 100L550 700L450 700L450 100L150 100L150 700L50 700L50 0L950 0L950-100L1050-100L1050 100L950 100Z"  horiz-adv-x="1080" vert-adv-y="1000"  />

      
      <glyph glyph-name="uni044A" unicode="&#x044A;" d="M720 200C720 145 675 100 620 100L220 100L220 350L620 350C675 350 720 305 720 250ZM20 600L120 600L120 0L620 0C732 0 820 94 820 200L820 250C820 361 725 450 620 450L220 450L220 700L20 700Z"  horiz-adv-x="850" vert-adv-y="1000"  />

      
      <glyph glyph-name="uni044B" unicode="&#x044B;" d="M650 200C650 145 605 100 550 100L150 100L150 350L550 350C605 350 650 305 650 250ZM750 250C747 361 657 450 550 450L150 450L150 700L50 700L50 0L550 0C662 0 750 94 750 200ZM850 0L950 0L950 700L850 700Z"  horiz-adv-x="1000" vert-adv-y="1000"  />

      
      <glyph glyph-name="uni044C" unicode="&#x044C;" d="M650 200C650 145 605 100 550 100L150 100L150 350L550 350C605 350 650 305 650 250ZM750 250C747 361 657 450 550 450L150 450L150 700L50 700L50 0L550 0C662 0 750 94 750 200Z"  horiz-adv-x="780" vert-adv-y="1000"  />

      
      <glyph glyph-name="uni044D" unicode="&#x044D;" d="M330 300L630 300L630 200C630 145 585 100 530 100L230 100C175 100 130 145 130 200L30 200C33 87 121 0 230 0L530 0C642 0 730 94 730 200L730 500C730 611 635 700 530 700L230 700C118 700 30 606 30 500L130 500C130 555 175 600 230 600L530 600C585 600 630 555 630 500L630 400L330 400Z"  horiz-adv-x="770" vert-adv-y="1000"  />

      
      <glyph glyph-name="uni044E" unicode="&#x044E;" d="M850 200C850 145 805 100 750 100L450 100C395 100 350 145 350 200L350 500C350 555 395 600 450 600L750 600C805 600 850 555 850 500ZM150 700L50 700L50 0L150 0L150 300L250 300L250 200C250 87 343 0 450 0L750 0C862 0 950 94 950 200L950 500C950 611 855 700 750 700L450 700C338 700 250 606 250 500L250 400L150 400Z"  horiz-adv-x="990" vert-adv-y="1000"  />

      
      <glyph glyph-name="uni044F" unicode="&#x044F;" d="M150 500C150 555 195 600 250 600L650 600L650 300L250 300C195 300 150 345 150 400ZM321 200L650 200L650 0L750 0L750 700L250 700C138 700 50 606 50 500L50 400C50 311 109 236 189 210L50 71L50 0L121 0Z"  horiz-adv-x="800" vert-adv-y="1000"  />

      
      <glyph glyph-name="uni2116" unicode="&#x2116;" d="M750 700L650 700L650 170L150 700L50 700L50 0L150 0L150 538L650 0L750 0ZM990 400C935 400 890 445 890 500C890 555 935 600 990 600C1045 600 1090 555 1090 500C1090 445 1045 400 990 400ZM1190 500C1187 611 1097 700 990 700C878 700 790 606 790 500C790 387 883 300 990 300C1102 300 1190 394 1190 500ZM810 160L1170 160L1170 260L810 260Z"  horiz-adv-x="1210" vert-adv-y="1000"  />

      
      <glyph glyph-name="uni0451" unicode="&#x0451;" d="M150 600L750 600L750 700L50 700L50 0L750 0L750 100L150 100L150 300L650 300L650 400L150 400ZM223 780L323 780L323 880L223 880ZM483 780L583 780L583 880L483 880Z"  horiz-adv-x="780" vert-adv-y="1000"  />

      
      <glyph glyph-name="uni0454" unicode="&#x0454;" d="M440 400L140 400L140 500C140 555 185 600 240 600L540 600C595 600 640 555 640 500L740 500C740 606 652 700 540 700L240 700C135 700 40 611 40 500L40 200C40 94 128 0 240 0L540 0C649 0 737 87 740 200L640 200C640 145 595 100 540 100L240 100C185 100 140 145 140 200L140 300L440 300Z"  horiz-adv-x="770" vert-adv-y="1000"  />

      
      <glyph glyph-name="uniab" unicode="&#xab;" d="M370 529L370 554L324 600L300 600L20 321L20 279L300 0L324 0L370 46L370 71L141 300ZM380 300L550 469L550 494L504 540L480 540L259 321L259 279L480 60L504 60L550 106L550 131Z"  horiz-adv-x="570" vert-adv-y="1000"  />

      
      <glyph glyph-name="unibb" unicode="&#xbb;" d="M20 131L20 106L66 60L90 60L311 279L311 321L90 540L66 540L20 494L20 469L190 300ZM429 300L200 71L200 46L246 0L270 0L550 279L550 321L270 600L246 600L200 554L200 529Z"  horiz-adv-x="570" vert-adv-y="1000"  />

      
      <glyph glyph-name="uni0458" unicode="&#x0458;" d="M220 100C165 100 120 145 120 200L20 200C23 87 111 0 220 0L520 0C632 0 720 94 720 200L720 700L620 700L620 200C620 145 575 100 520 100Z"  horiz-adv-x="770" vert-adv-y="1000"  />

      
      <glyph glyph-name="uni0405" unicode="&#x0405;" d="M740 200C740 311 645 400 540 400L240 400C185 400 140 445 140 500C140 555 185 600 240 600L540 600C595 600 640 555 640 500L740 500C737 611 647 700 540 700L240 700C128 700 40 606 40 500C40 387 133 300 240 300L540 300C595 300 640 255 640 200C640 145 595 100 540 100L240 100C185 100 140 145 140 200L40 200C43 87 131 0 240 0L540 0C652 0 740 94 740 200Z"  horiz-adv-x="780" vert-adv-y="1000"  />

      
      <glyph glyph-name="uni0455" unicode="&#x0455;" d="M740 200C740 311 645 400 540 400L240 400C185 400 140 445 140 500C140 555 185 600 240 600L540 600C595 600 640 555 640 500L740 500C737 611 647 700 540 700L240 700C128 700 40 606 40 500C40 387 133 300 240 300L540 300C595 300 640 255 640 200C640 145 595 100 540 100L240 100C185 100 140 145 140 200L40 200C43 87 131 0 240 0L540 0C652 0 740 94 740 200Z"  horiz-adv-x="780" vert-adv-y="1000"  />

      
      <glyph glyph-name="unia7" unicode="&#xa7;" d="M50 500C50 440 77 387 119 350C76 313 50 258 50 200C50 87 143 0 250 0L354 0C407 0 450-46 450-100C450-155 405-200 350-200L250-200C195-200 150-155 150-100L50-100C53-213 141-300 250-300L350-300C462-300 550-206 550-100C550-40 522 13 481 49C523 87 550 141 550 200C550 313 457 400 350 400L246 400C193 400 150 446 150 500C150 555 195 600 250 600L350 600C405 600 450 555 450 500L550 500C547 613 459 700 350 700L250 700C138 700 50 606 50 500ZM250 100C195 100 150 145 150 200C150 255 195 300 250 300L350 300C405 300 450 255 450 200C450 146 407 100 354 100Z"  horiz-adv-x="600" vert-adv-y="1000"  />

      
      <glyph glyph-name="uni20AC" unicode="&#x20AC;" d="M0 380L70 380L70 320L0 320L0 240L70 240L70 200C70 87 163 0 270 0L570 0C682 0 770 94 770 200L670 200C670 145 625 100 570 100L270 100C215 100 170 145 170 200L170 240L540 240L540 320L170 320L170 380L540 380L540 460L170 460L170 500C170 555 215 600 270 600L570 600C625 600 670 555 670 500L770 500C767 611 677 700 570 700L270 700C158 700 70 608 70 500L70 460L0 460Z"  horiz-adv-x="800" vert-adv-y="1000"  />

      
      <glyph glyph-name="uni0406" unicode="&#x0406;" d="M50 0L150 0L150 700L50 700Z"  horiz-adv-x="200" vert-adv-y="1000"  />

      
      <glyph glyph-name="uni0456" unicode="&#x0456;" d="M50 0L150 0L150 700L50 700Z"  horiz-adv-x="200" vert-adv-y="1000"  />

      
      <glyph glyph-name="uni040E" unicode="&#x040E;" d="M260 100C205 100 160 145 160 200L60 200C63 87 151 0 260 0L540 0C652 0 740 94 740 200L740 700L640 700L640 400L240 400C185 400 140 445 140 500L140 700L40 700L40 500C40 387 133 300 240 300L640 300L640 200C640 145 595 100 540 100ZM500 900C500 845 455 800 400 800C345 800 300 845 300 900L200 900C203 787 291 700 400 700C512 700 600 794 600 900Z"  horiz-adv-x="790" vert-adv-y="1000"  />

      
      <glyph glyph-name="uni045E" unicode="&#x045E;" d="M260 100C205 100 160 145 160 200L60 200C63 87 151 0 260 0L540 0C652 0 740 94 740 200L740 700L640 700L640 400L240 400C185 400 140 445 140 500L140 700L40 700L40 500C40 387 133 300 240 300L640 300L640 200C640 145 595 100 540 100ZM500 900C500 845 455 800 400 800C345 800 300 845 300 900L200 900C203 787 291 700 400 700C512 700 600 794 600 900Z"  horiz-adv-x="790" vert-adv-y="1000"  />

      
      <glyph glyph-name="uni0408" unicode="&#x0408;" d="M220 100C165 100 120 145 120 200L20 200C23 87 111 0 220 0L520 0C632 0 720 94 720 200L720 700L620 700L620 200C620 145 575 100 520 100Z"  horiz-adv-x="770" vert-adv-y="1000"  />

      
      <glyph glyph-name="uni0490" unicode="&#x0490;" d="M650 600L650 800L550 800L550 700L50 700L50 0L150 0L150 600Z"  horiz-adv-x="650" vert-adv-y="1000"  />

      
      <glyph glyph-name="uni0491" unicode="&#x0491;" d="M650 600L650 800L550 800L550 700L50 700L50 0L150 0L150 600Z"  horiz-adv-x="650" vert-adv-y="1000"  />

      
      <glyph glyph-name="uni2030" unicode="&#x2030;" d="M730 700L667 700L180 77L180 0L247 0L730 619ZM230 400C175 400 130 445 130 500C130 555 175 600 230 600C285 600 330 555 330 500C330 445 285 400 230 400ZM430 500C427 611 337 700 230 700C118 700 30 606 30 500C30 387 123 300 230 300C342 300 430 394 430 500ZM680 100C625 100 580 145 580 200C580 255 625 300 680 300C735 300 780 255 780 200C780 145 735 100 680 100ZM880 200C877 311 787 400 680 400C568 400 480 306 480 200C480 87 573 0 680 0C792 0 880 94 880 200ZM1110 100C1055 100 1010 145 1010 200C1010 255 1055 300 1110 300C1165 300 1210 255 1210 200C1210 145 1165 100 1110 100ZM1310 200C1307 311 1217 400 1110 400C998 400 910 306 910 200C910 87 1003 0 1110 0C1222 0 1310 94 1310 200Z"  horiz-adv-x="1340" vert-adv-y="1000"  />

      
      <glyph glyph-name="uni2039" unicode="&#x2039;" d="M370 529L370 554L324 600L300 600L20 321L20 279L300 0L324 0L370 46L370 71L141 300Z"  horiz-adv-x="390" vert-adv-y="1000"  />

      
      <glyph glyph-name="uni203A" unicode="&#x203A;" d="M20 71L20 46L66 0L90 0L370 279L370 321L90 600L66 600L20 554L20 529L249 300Z"  horiz-adv-x="390" vert-adv-y="1000"  />

      
      <glyph glyph-name="uni0403" unicode="&#x0403;" d="M650 600L650 700L50 700L50 0L150 0L150 600ZM280 755L400 755L530 915L410 915Z"  horiz-adv-x="650" vert-adv-y="1000"  />

      
      <glyph glyph-name="uni0453" unicode="&#x0453;" d="M650 600L650 700L50 700L50 0L150 0L150 600ZM280 755L400 755L530 915L410 915Z"  horiz-adv-x="650" vert-adv-y="1000"  />

      
      <glyph glyph-name="uni040C" unicode="&#x040C;" d="M750 700L609 700L309 400L150 400L150 700L50 700L50 0L150 0L150 300L309 300L609 0L750 0L400 350ZM280 755L400 755L530 915L410 915Z"  horiz-adv-x="750" vert-adv-y="1000"  />

      
      <glyph glyph-name="uni045C" unicode="&#x045C;" d="M750 700L609 700L309 400L150 400L150 700L50 700L50 0L150 0L150 300L309 300L609 0L750 0L400 350ZM280 755L400 755L530 915L410 915Z"  horiz-adv-x="750" vert-adv-y="1000"  />

      
      <glyph glyph-name="uni0407" unicode="&#x0407;" d="M50 0L150 0L150 700L50 700ZM-50 760L50 760L50 860L-50 860ZM150 760L250 760L250 860L150 860Z"  horiz-adv-x="200" vert-adv-y="1000"  />

      
      <glyph glyph-name="uni0457" unicode="&#x0457;" d="M50 0L150 0L150 700L50 700ZM-50 760L50 760L50 860L-50 860ZM150 760L250 760L250 860L150 860Z"  horiz-adv-x="200" vert-adv-y="1000"  />

      
      <glyph glyph-name="uniad" unicode="&#xad;" d="M20 300L470 300L470 400L20 400Z"  horiz-adv-x="490" vert-adv-y="1000"  />

      
      <glyph glyph-name="unia9" unicode="&#xa9;" d="M840 100C840 45 795 0 740 0L240 0C185 0 140 45 140 100L140 600C140 655 185 700 240 700L740 700C795 700 840 655 840 600ZM940 600C940 709 846 800 740 800L240 800C130 800 40 710 40 600L40 100C40-11 129-100 240-100L740-100C850-100 940-10 940 100ZM383 597C304 595 241 532 241 456L241 243C241 163 307 102 383 102L597 102C677 102 739 168 739 243L668 243C668 204 636 172 597 172L383 172C344 172 312 204 312 243L312 456C312 495 344 526 383 526L597 526C636 526 668 495 668 456L739 456C737 534 673 597 597 597Z"  horiz-adv-x="980" vert-adv-y="1000"  />

      
      <glyph glyph-name="uniae" unicode="&#xae;" d="M840 100C840 45 795 0 740 0L240 0C185 0 140 45 140 100L140 600C140 655 185 700 240 700L740 700C795 700 840 655 840 600ZM940 600C940 709 846 800 740 800L240 800C130 800 40 710 40 600L40 100C40-11 129-100 240-100L740-100C850-100 940-10 940 100ZM667 386C667 347 635 315 596 315L313 315L313 528L596 528C635 528 667 496 667 457ZM738 101L738 152L639 251C698 270 738 325 738 386L738 457C738 536 670 599 596 599L242 599L242 101L313 101L313 243L546 243L687 101Z"  horiz-adv-x="980" vert-adv-y="1000"  />

      
      <glyph glyph-name="uni045F" unicode="&#x045F;" d="M750 700L650 700L650 100L150 100L150 700L50 700L50 0L350 0L350-140L450-140L450 0L750 0Z"  horiz-adv-x="800" vert-adv-y="1000"  />

      
      <glyph glyph-name="uni040F" unicode="&#x040F;" d="M750 700L650 700L650 100L150 100L150 700L50 700L50 0L350 0L350-140L450-140L450 0L750 0Z"  horiz-adv-x="800" vert-adv-y="1000"  />

      
      <glyph glyph-name="uni2122" unicode="&#x2122;" d="M353 650L353 700L0 700L0 650L151 650L151 350L202 350L202 650ZM580 394L731 610L731 350L781 350L781 700L731 700L580 483L428 700L378 700L378 350L428 350L428 610Z"  horiz-adv-x="801" vert-adv-y="1000"  />

      
      <glyph glyph-name="uni2013" unicode="&#x2013;" d="M20 300L570 300L570 400L20 400Z"  horiz-adv-x="590" vert-adv-y="1000"  />

      
      <glyph glyph-name="uni2014" unicode="&#x2014;" d="M20 300L770 300L770 400L20 400Z"  horiz-adv-x="790" vert-adv-y="1000"  />

      
      <glyph glyph-name="uni0459" unicode="&#x0459;" d="M1170 250C1167 361 1077 450 970 450L660 450L660 700L250 700C138 700 50 608 50 500L50 0L150 0L150 500C150 555 195 600 250 600L560 600L560 0L970 0C1082 0 1170 94 1170 200ZM1070 200C1070 145 1025 100 970 100L660 100L660 350L970 350C1025 350 1070 305 1070 250Z"  horiz-adv-x="1200" vert-adv-y="1000"  />

      
      <glyph glyph-name="uni0409" unicode="&#x0409;" d="M1170 250C1167 361 1077 450 970 450L660 450L660 700L250 700C138 700 50 608 50 500L50 0L150 0L150 500C150 555 195 600 250 600L560 600L560 0L970 0C1082 0 1170 94 1170 200ZM1070 200C1070 145 1025 100 970 100L660 100L660 350L970 350C1025 350 1070 305 1070 250Z"  horiz-adv-x="1200" vert-adv-y="1000"  />

      
      <glyph glyph-name="uni040A" unicode="&#x040A;" d="M1170 240C1167 351 1077 440 970 440L660 440L660 700L560 700L560 440L150 440L150 700L50 700L50 0L150 0L150 340L560 340L560 0L970 0C1082 0 1170 94 1170 200ZM1070 200C1070 145 1025 100 970 100L660 100L660 340L970 340C1025 340 1070 295 1070 240Z"  horiz-adv-x="1200" vert-adv-y="1000"  />

      
      <glyph glyph-name="uni045A" unicode="&#x045A;" d="M1170 240C1167 351 1077 440 970 440L660 440L660 700L560 700L560 440L150 440L150 700L50 700L50 0L150 0L150 340L560 340L560 0L970 0C1082 0 1170 94 1170 200ZM1070 200C1070 145 1025 100 970 100L660 100L660 340L970 340C1025 340 1070 295 1070 240Z"  horiz-adv-x="1200" vert-adv-y="1000"  />

      
      <glyph glyph-name="uni0452" unicode="&#x0452;" d="M630-40C742-37 830 52 830 160L830 229C830 342 737 429 630 429L260 429L260 600L420 600L420 700L0 700L0 600L160 600L160 0L260 0L260 329L630 329C685 329 730 284 730 229L730 160C730 105 685 60 630 60Z"  horiz-adv-x="860" vert-adv-y="1000"  />

      
      <glyph glyph-name="uni040B" unicode="&#x040B;" d="M830 0L830 229C830 342 737 429 630 429L260 429L260 600L420 600L420 700L0 700L0 600L160 600L160 0L260 0L260 329L630 329C685 329 730 284 730 229L730 0Z"  horiz-adv-x="860" vert-adv-y="1000"  />

      
      <glyph glyph-name="uni0402" unicode="&#x0402;" d="M630-40C742-37 830 52 830 160L830 229C830 342 737 429 630 429L260 429L260 600L420 600L420 700L0 700L0 600L160 600L160 0L260 0L260 329L630 329C685 329 730 284 730 229L730 160C730 105 685 60 630 60Z"  horiz-adv-x="850" vert-adv-y="1000"  />

      
      <glyph glyph-name="uni045B" unicode="&#x045B;" d="M830 0L830 229C830 342 737 429 630 429L260 429L260 600L420 600L420 700L0 700L0 600L160 600L160 0L260 0L260 329L630 329C685 329 730 284 730 229L730 0Z"  horiz-adv-x="860" vert-adv-y="1000"  />

      
      <glyph glyph-name="uni201E" unicode="&#x201E;" d="M50-100L150-100L150 100L50 100ZM250-100L350-100L350 100L250 100Z"  horiz-adv-x="400" vert-adv-y="1000"  />

      
      <glyph glyph-name="uni201A" unicode="&#x201A;" d="M50-100L150-100L150 100L50 100Z"  horiz-adv-x="200" vert-adv-y="1000"  />

      
      <glyph glyph-name="uni2026" unicode="&#x2026;" d="M50 0L150 0L150 100L50 100ZM250 0L350 0L350 100L250 100ZM450 0L550 0L550 100L450 100Z"  horiz-adv-x="600" vert-adv-y="1000"  />

      
      <glyph glyph-name="unib0" unicode="&#xb0;" d="M220 400C165 400 120 445 120 500C120 555 165 600 220 600C275 600 320 555 320 500C320 445 275 400 220 400ZM420 500C417 611 327 700 220 700C108 700 20 606 20 500C20 387 113 300 220 300C332 300 420 394 420 500Z"  horiz-adv-x="440" vert-adv-y="1000"  />

      
      <glyph glyph-name="unib6" unicode="&#xb6;" d="M30 440C30 334 118 240 230 240L320 240L320-300L420-300L420 700L230 700C123 700 30 611 30 500ZM520-300L620-300L620 700L520 700Z"  horiz-adv-x="670" vert-adv-y="1000"  />

      
      <glyph glyph-name="uni2020" unicode="&#x2020;" d="M30 440L205 440L205-100L305-100L305 440L480 440L480 540L305 540L305 800L205 800L205 540L30 540Z"  horiz-adv-x="510" vert-adv-y="1000"  />

      
      <glyph glyph-name="uni2021" unicode="&#x2021;" d="M30 500L205 500L205 200L30 200L30 100L205 100L205-100L305-100L305 100L480 100L480 200L305 200L305 500L480 500L480 600L305 600L305 800L205 800L205 600L30 600Z"  horiz-adv-x="510" vert-adv-y="1000"  />

      
      <glyph glyph-name="unib1" unicode="&#xb1;" d="M320 160L320 320L520 320L520 420L320 420L320 600L220 600L220 420L20 420L20 320L220 320L220 160ZM20 30L520 30L520 130L20 130Z"  horiz-adv-x="540" vert-adv-y="1000"  />

      
      <glyph glyph-name="uni2022" unicode="&#x2022;" d="M220 250C275 250 320 295 320 350C320 405 275 450 220 450C165 450 120 405 120 350C120 295 165 250 220 250Z"  horiz-adv-x="440" vert-adv-y="1000"  />

      
      <glyph glyph-name="unia6" unicode="&#xa6;" d="M50-100L150-100L150 300L50 300ZM150 800L50 800L50 400L150 400Z"  horiz-adv-x="200" vert-adv-y="1000"  />

      
      <glyph glyph-name="unib7" unicode="&#xb7;" d="M220 250C275 250 320 295 320 350C320 405 275 450 220 450C165 450 120 405 120 350C120 295 165 250 220 250Z"  horiz-adv-x="440" vert-adv-y="1000"  />

      
      <glyph glyph-name="unia4" unicode="&#xa4;" d="M560 270C665 270 760 359 760 460L760 500C760 611 665 700 560 700L60 700L60 360L0 360L0 270L60 270L60 230L0 230L0 140L60 140L60 0L160 0L160 140L554 140L689 0L760 0L760 71L610 230L160 230L160 270ZM660 460C660 405 615 360 560 360L160 360L160 600L560 600C615 600 660 555 660 500Z"  horiz-adv-x="800" vert-adv-y="1000"  />

      

  </font>
</defs>
</svg>
